<?xml version="1.0" encoding="UTF-8"?>
<svg width="301px" height="81px" viewBox="0 0 301 81" version="1.1" xmlns="http://www.w3.org/2000/svg" xmlns:xlink="http://www.w3.org/1999/xlink">
    <!-- Generator: Sketch 40.3 (33839) - http://www.bohemiancoding.com/sketch -->
    <title>LOGO</title>
    <desc>Created with Sketch.</desc>
    <defs>
        <polygon id="path-1" points="69.5054442 80.4044118 0 80.4044118 0 0.334125 69.5054442 0.334125 69.5054442 80.4044118"></polygon>
    </defs>
    <g id="Page-1" stroke="none" stroke-width="1" fill="none" fill-rule="evenodd">
        <g id="LOGO">
            <g id="Page-1">
                <path d="M23.3350684,48.2517 C23.3350684,48.6340676 23.0676325,48.8478838 22.7373761,48.8478838 C22.4083162,48.8478838 22.1372906,48.6340676 22.1372906,48.2517 L23.3350684,48.2517 Z M32.6378889,47.9926191 C32.6378889,47.9890456 32.6378889,47.8663544 32.524812,47.8318103 C32.454812,47.8109647 32.3812222,47.8383618 32.3369487,47.8967294 C31.2719915,49.2898103 29.5166068,50.9800897 28.5180598,51.5000382 C28.0196838,51.7579279 27.554812,51.7489941 27.124641,51.5048029 C26.696265,51.2594206 26.4210513,50.8037956 26.4210513,50.3112441 C26.4210513,49.3047 26.4725043,47.9616485 26.1721624,47.3833324 C25.7066923,46.4804206 24.7984872,46.3130603 23.6934444,46.3130603 C22.2868632,46.3130603 21.3768632,46.7043618 21.1166068,47.6453912 C20.5332735,47.6620676 19.2565214,47.8383618 19.0178034,49.0658691 L20.4411368,49.5113691 C20.791735,49.6227441 21.0370342,49.9467441 21.0370342,50.3112441 C21.0370342,50.8037956 20.7642137,51.2594206 20.3316496,51.5048029 C19.9020769,51.7489941 19.3725897,51.7489941 18.9424188,51.5000382 C18.7581453,51.3934279 18.3979744,51.1623397 18.3979744,51.1623397 C16.8214786,50.0855162 15.2007094,48.0021485 15.1199402,47.8967294 C15.0684872,47.8318103 15.0032735,47.8127515 14.9332735,47.8318103 C14.8207949,47.8633765 14.8207949,47.9890456 14.8207949,47.9926191 C15.0906239,57.2957074 20.6942137,61.7912074 23.7191709,63.1515309 C23.7209658,63.1533176 23.7227607,63.1533176 23.7281453,63.1562956 L23.7299402,63.1562956 C23.731735,63.1533176 23.7377179,63.1533176 23.7395128,63.1515309 C26.7644701,61.7912074 32.4141282,57.2957074 32.6378889,47.9926191 L32.6378889,47.9926191 Z" id="Fill-1" fill="#FFFFFF"></path>
                <path d="M54.0039231,38.2535007 L53.3685385,38.886611 C53.1124701,39.1391404 52.6918718,39.1391404 52.4387949,38.886611 L50.7127265,37.1671478 L50.0211026,37.8556478 C49.9337521,37.9414125 49.8194786,37.9872728 49.6980256,37.9872728 C49.5741795,37.9872728 49.4575128,37.9414125 49.3731538,37.8556478 L49.1200769,37.603714 C48.9447778,37.4268243 48.9447778,37.1391551 49.1200769,36.962861 L49.6866581,36.3982434 L47.8445214,34.8765154 L45.9987949,36.3982434 L46.5653761,36.962861 C46.744265,37.1391551 46.7478547,37.4268243 46.5689658,37.603714 L46.3200769,37.8556478 C46.2333248,37.9414125 46.1148632,37.9872728 45.992812,37.9872728 C45.8749487,37.9872728 45.7588803,37.9414125 45.6721282,37.8556478 L44.979906,37.1671478 L43.2580256,38.886611 C42.9989658,39.1391404 42.5801624,39.1391404 42.324094,38.886611 L41.6869145,38.2535007 C41.5654615,38.1308096 41.4936667,37.9622581 41.4936667,37.7901331 C41.4936667,37.6150301 41.5654615,37.4476699 41.6869145,37.3243831 L43.4147778,35.609089 L42.721359,34.9193978 C42.5454615,34.7419125 42.5454615,34.4530522 42.721359,34.2743757 L42.9774274,34.026611 C43.1527265,33.8467434 43.4428974,33.8467434 43.621188,34.026611 L44.339735,34.7419125 L45.7774274,33.0158978 L42.1230684,29.9956699 C41.9639231,29.8670228 41.8646068,29.6847728 41.8346923,29.4810816 L41.5301624,27.364361 C41.4936667,27.1106404 41.5780256,26.8533463 41.7628974,26.6699051 C41.9477692,26.4876551 42.2038376,26.4036772 42.4605043,26.4411993 L44.5958034,26.7431625 C44.7950342,26.7759199 44.9727265,26.8741919 45.1019573,27.033214 L47.8427265,30.3143096 L50.5834957,27.033214 C50.7127265,26.8741919 50.8975983,26.7759199 51.0986239,26.7431625 L53.2285385,26.4411993 C53.487,26.4036772 53.7448632,26.4876551 53.9279402,26.6699051 C54.112812,26.8533463 54.1971709,27.1106404 54.1624701,27.364361 L53.859735,29.4810816 C53.8322137,29.6847728 53.7269145,29.8670228 53.5695641,29.9956699 L49.9175983,33.0158978 L51.3546923,34.7419125 L52.072641,34.026611 C52.2479402,33.8467434 52.5405043,33.8467434 52.7193932,34.026611 L52.9700769,34.2743757 C53.1489658,34.4530522 53.1489658,34.7419125 52.9700769,34.9193978 L52.2778547,35.609089 L54.0039231,37.3243831 C54.1253761,37.4476699 54.1971709,37.6150301 54.1971709,37.7901331 C54.1971709,37.9622581 54.1253761,38.1308096 54.0039231,38.2535007" id="Fill-3" fill="#FFFFFF"></path>
                <g id="Group-7" transform="translate(0.000000, 0.261463)">
                    <mask id="mask-2" fill="white">
                        <use xlink:href="#path-1"></use>
                    </mask>
                    <g id="Clip-6"></g>
                    <path d="M60.5225983,40.8687287 L34.7512308,40.8687287 L34.7512308,72.3265081 C28.3555043,69.899486 15.9840513,63.6922654 12.4954188,55.0073978 C10.7358462,50.6262507 9.60986325,45.9270596 8.89251282,40.8687287 L34.7512308,40.8687287 L34.7512308,13.7194346 C43.6753333,23.4555154 54.7401197,26.0719346 61.7688376,26.6651404 C61.6228547,30.7913757 61.2644786,35.8264787 60.5225983,40.8687287 L60.5225983,40.8687287 Z M52.756188,61.1985375 L47.847812,58.630361 L42.9382393,61.1985375 L43.876359,55.7590301 L39.9043077,51.9037875 L45.3936239,51.1110596 L47.847812,46.159339 L50.3014017,51.1110596 L55.7907179,51.9037875 L51.8180684,55.7590301 L52.756188,61.1985375 Z M16.7091795,27.3512581 C16.7091795,26.4286919 17.4618291,25.6770596 18.3867863,25.6770596 L18.3903761,25.6770596 L18.3903761,33.722861 C18.3903761,33.8157728 18.4202906,33.9015375 18.4699487,33.9426331 C18.5196068,33.9855154 18.5800342,33.9783684 18.6267009,33.9271478 L19.8490085,32.4864199 L21.0078974,33.9235743 C21.0318291,33.9545449 21.064735,33.9712213 21.0964444,33.9712213 C21.1167863,33.9712213 21.1425128,33.9616919 21.1628547,33.9450154 C21.2125128,33.9033243 21.2460171,33.8163684 21.2460171,33.722861 L21.2460171,25.6770596 L27.4604615,25.6770596 C27.6525128,25.6770596 27.809265,25.8348904 27.809265,26.0242875 L27.809265,35.8092066 C27.809265,36.0003904 27.6525128,36.1564346 27.4604615,36.1564346 C27.4580684,36.1564346 27.4544786,36.155839 27.4544786,36.155839 C27.4275556,36.1611993 27.4036239,36.1653684 27.3755043,36.1653684 L18.3849915,36.1653684 C17.8644786,36.1653684 17.4361026,36.5727507 17.4049915,37.0867434 C17.4049915,37.1183096 17.4067863,37.1415375 17.4067863,37.155236 C17.4067863,37.1659566 17.4049915,37.1742949 17.4049915,37.1838243 C17.4271282,37.704964 17.8584957,38.1236625 18.3849915,38.1236625 L27.113453,38.1236625 L27.113453,37.1659566 C27.113453,36.975964 27.2702051,36.8205154 27.4604615,36.8205154 C27.6525128,36.8205154 27.809265,36.975964 27.809265,37.1659566 L27.809265,38.4691037 C27.809265,38.6620743 27.6525128,38.8163316 27.4604615,38.8163316 L18.3311453,38.8163316 C18.3167863,38.8163316 18.2964444,38.8133537 18.2814872,38.8097801 C17.4049915,38.7573684 16.7073846,38.0295596 16.7073846,37.1439199 C16.7073846,37.1242654 16.7091795,37.1040154 16.7103761,37.0837654 C16.6996068,36.0575669 16.7103761,28.2363022 16.7103761,27.3863978 C16.7091795,27.3732949 16.7091795,27.3637654 16.7091795,27.3512581 L16.7091795,27.3512581 Z M69.4616581,18.9159419 C69.4616581,18.9159419 67.8893504,19.1875301 65.3603761,19.1875301 C58.1916581,19.1875301 43.3283248,17.0118463 34.7512308,0.333588971 C34.1475556,1.5116625 33.5073846,2.61052279 32.8402906,3.64863309 L29.4725128,8.13519926 C20.9708034,17.7336993 9.99635897,19.1875301 4.14567521,19.1875301 C1.61430769,19.1875301 0.0437948718,18.9159419 0.0437948718,18.9159419 C0.0437948718,18.9159419 -0.845264957,42.362464 5.37815385,57.8423978 C11.5985812,73.3270963 34.7512308,80.4044713 34.7512308,80.4044713 C34.7512308,80.4044713 57.9074701,73.3270963 64.129094,57.8423978 C70.3495214,42.362464 69.4616581,18.9159419 69.4616581,18.9159419 L69.4616581,18.9159419 Z" id="Fill-5" fill="#FFFFFF" mask="url(#mask-2)"></path>
                </g>
            </g>
            <g id="Group" transform="translate(84.000000, 13.000000)" fill="#FFFFFF">
                <path d="M17.3085938,22.2226562 L8.18261719,22.3867188 L7.50585938,24.3554688 C7.43749966,24.546876 7.35205129,24.7861314 7.24951172,25.0732422 C7.14697214,25.360353 7.03076237,25.6645492 6.90087891,25.9858398 C6.77099544,26.3071305 6.64111393,26.6215805 6.51123047,26.9291992 C6.38134701,27.2368179 6.26855517,27.5136706 6.17285156,27.7597656 L9.16699219,27.6367188 L9.16699219,31 L0.1640625,31 L0.1640625,28.1083984 C0.751956064,28.1083984 1.24755658,27.975099 1.65087891,27.7084961 C2.05420124,27.4418932 2.4062485,27.0898459 2.70703125,26.6523438 C3.007814,26.2148416 3.2744129,25.7055693 3.50683594,25.1245117 C3.73925897,24.5434541 3.97167853,23.9384797 4.20410156,23.3095703 L12.4072266,0.853515625 L15.3193359,0.853515625 L24.28125,23.7402344 C24.3632817,23.9453135 24.4624018,24.2187483 24.5786133,24.5605469 C24.6948248,24.9023455 24.8144525,25.2680645 24.9375,25.6577148 C25.0605475,26.0473652 25.1699214,26.4370098 25.265625,26.8266602 C25.3613286,27.2163105 25.4296873,27.5683578 25.4707031,27.8828125 L27.890625,27.7597656 L27.890625,31 L16.5703125,31 L16.5703125,28.2314453 C17.3222694,28.2314453 17.8486313,28.0844741 18.1494141,27.7905273 C18.4501968,27.4965806 18.6005859,27.0966822 18.6005859,26.5908203 C18.6005859,26.3037095 18.5595707,25.9858416 18.4775391,25.637207 C18.3955074,25.2885725 18.2861335,24.9160176 18.1494141,24.5195312 L17.3085938,22.2226562 Z M9.24902344,19.2490234 L16.2421875,19.2490234 L14.3349609,13.9785156 C13.9658185,12.9531199 13.6376967,11.9379933 13.3505859,10.9331055 C13.0634751,9.92821763 12.8515632,9.03613671 12.7148438,8.25683594 L12.6738281,8.25683594 C12.5644526,8.73535396 12.3935558,9.44628435 12.1611328,10.3896484 C11.9287098,11.3330125 11.5869163,12.4677668 11.1357422,13.7939453 L9.24902344,19.2490234 Z M36.3939453,15.8652344 C36.3939453,17.6836028 36.5887676,19.3515549 36.978418,20.8691406 C37.3680684,22.3867263 37.9354455,23.6957953 38.6805664,24.7963867 C39.4256873,25.8969782 40.3451117,26.7514618 41.4388672,27.3598633 C42.5326227,27.9682648 43.7904226,28.2724609 45.2123047,28.2724609 C46.0873091,28.2724609 46.9691362,28.1562512 47.8578125,27.9238281 C48.7464888,27.6914051 49.6078084,27.3530296 50.4417969,26.9086914 C51.2757854,26.4643532 52.0653283,25.9209017 52.8104492,25.2783203 C53.5555702,24.635739 54.2220674,23.9111368 54.809961,23.1044922 L56.8197266,24.9501953 C55.7943308,26.3720774 54.7210994,27.5205034 53.6,28.3955078 C52.4789007,29.2705122 51.364654,29.9506812 50.2572266,30.4360352 C49.1497992,30.9213891 48.0765677,31.2495109 47.0375,31.4204102 C45.9984323,31.5913094 45.0482465,31.6767578 44.1869141,31.6767578 C42.0130751,31.6767578 40.0409268,31.2905312 38.2704102,30.5180664 C36.4998935,29.7456016 34.9857485,28.6860419 33.7279297,27.3393555 C32.4701109,25.992669 31.4994175,24.4101653 30.8158203,22.5917969 C30.1322232,20.7734284 29.7904297,18.8183698 29.7904297,16.7265625 C29.7904297,15.4550718 29.9271471,14.1801822 30.200586,12.9018555 C30.4740248,11.6235288 30.880759,10.3999082 31.4208008,9.23095703 C31.9608426,8.06200587 32.6410115,6.97168475 33.4613281,5.95996094 C34.2816448,4.94823713 35.2352485,4.06641001 36.322168,3.31445312 C37.4090875,2.56249624 38.6327081,1.97461149 39.9930664,1.55078125 C41.3534248,1.12695101 42.8470622,0.915039062 44.4740235,0.915039062 C45.0209012,0.915039062 45.5985321,0.959472212 46.2069336,1.04833984 C46.8153351,1.13720748 47.4339813,1.27050692 48.0628906,1.44824219 C48.6918,1.62597745 49.3138641,1.84130733 49.9291016,2.09423828 C50.544339,2.34716923 51.1322238,2.64452954 51.6927735,2.98632812 L51.7337891,2.98632812 L51.5902344,1.20214844 L54.8304688,1.20214844 L54.8304688,11.0253906 L52.0824219,11.0253906 C51.6996075,8.68748831 50.9271543,6.92725201 49.7650391,5.74462891 C48.6029239,4.56200581 47.0238381,3.97070312 45.0277344,3.97070312 C43.5648365,3.97070312 42.2899469,4.30566071 41.2030274,4.97558594 C40.1161079,5.64551116 39.2171911,6.53417415 38.50625,7.64160156 C37.795309,8.74902897 37.2655291,10.0170827 36.9168946,11.4458008 C36.56826,12.8745189 36.3939453,14.3476487 36.3939453,15.8652344 L36.3939453,15.8652344 Z M75.3513672,22.2226562 L66.2253907,22.3867188 L65.5486329,24.3554688 C65.4802731,24.546876 65.3948248,24.7861314 65.2922852,25.0732422 C65.1897456,25.360353 65.0735359,25.6645492 64.9436524,25.9858398 C64.8137689,26.3071305 64.6838874,26.6215805 64.554004,26.9291992 C64.4241205,27.2368179 64.3113287,27.5136706 64.215625,27.7597656 L67.2097657,27.6367188 L67.2097657,31 L58.206836,31 L58.206836,28.1083984 C58.7947295,28.1083984 59.2903301,27.975099 59.6936524,27.7084961 C60.0969747,27.4418932 60.449022,27.0898459 60.7498047,26.6523438 C61.0505875,26.2148416 61.3171864,25.7055693 61.5496094,25.1245117 C61.7820325,24.5434541 62.014452,23.9384797 62.246875,23.3095703 L70.45,0.853515625 L73.3621094,0.853515625 L82.3240235,23.7402344 C82.4060551,23.9453135 82.5051752,24.2187483 82.6213868,24.5605469 C82.7375983,24.9023455 82.857226,25.2680645 82.9802735,25.6577148 C83.103321,26.0473652 83.2126949,26.4370098 83.3083985,26.8266602 C83.4041021,27.2163105 83.4724608,27.5683578 83.5134766,27.8828125 L85.9333985,27.7597656 L85.9333985,31 L74.613086,31 L74.613086,28.2314453 C75.3650429,28.2314453 75.8914048,28.0844741 76.1921875,27.7905273 C76.4929703,27.4965806 76.6433594,27.0966822 76.6433594,26.5908203 C76.6433594,26.3037095 76.6023442,25.9858416 76.5203125,25.637207 C76.4382809,25.2885725 76.328907,24.9160176 76.1921875,24.5195312 L75.3513672,22.2226562 Z M67.2917969,19.2490234 L74.284961,19.2490234 L72.3777344,13.9785156 C72.008592,12.9531199 71.6804702,11.9379933 71.3933594,10.9331055 C71.1062486,9.92821763 70.8943367,9.03613671 70.7576172,8.25683594 L70.7166016,8.25683594 C70.6072261,8.73535396 70.4363293,9.44628435 70.2039063,10.3896484 C69.9714833,11.3330125 69.6296898,12.4677668 69.1785157,13.7939453 L67.2917969,19.2490234 Z M89.2892579,1.59179688 L101.532422,1.55078125 C103.378134,1.55078125 105.05634,1.74218559 106.56709,2.125 C108.07784,2.50781441 109.427924,3.04101221 110.617383,3.72460938 C111.806842,4.40820654 112.839058,5.2148391 113.714063,6.14453125 C114.589067,7.0742234 115.313669,8.07567823 115.887891,9.14892578 C116.462112,10.2221733 116.889354,11.3432559 117.169629,12.512207 C117.449904,13.6811582 117.590039,14.8466739 117.590039,16.0087891 C117.590039,17.1435604 117.460158,18.3022402 117.200391,19.4848633 C116.940624,20.6674864 116.53389,21.8159124 115.980176,22.9301758 C115.426462,24.0444392 114.71895,25.0903271 113.857617,26.0678711 C112.996285,27.045415 111.964069,27.8998987 110.760938,28.6313477 C109.557807,29.3627966 108.173543,29.9404276 106.608106,30.3642578 C105.042668,30.7880881 103.282432,31 101.327344,31 L89.2892579,31 L89.2892579,28.2314453 C89.754104,28.2041014 90.1745099,28.1562503 90.5504884,28.0878906 C90.9264668,28.0195309 91.2409168,27.8691418 91.4938477,27.6367188 C91.7467787,27.4042957 91.941601,27.0488305 92.0783204,26.5703125 C92.2150398,26.0917945 92.2833985,25.4287152 92.2833985,24.5810547 L92.2833985,8.48242188 C92.2833985,8.09960746 92.2868164,7.72363466 92.2936524,7.35449219 C92.3004884,6.98534972 92.3107422,6.63330246 92.3244141,6.29833984 C92.3380861,5.96337723 92.3551758,5.65918105 92.3756837,5.38574219 C92.3961916,5.11230332 92.4201171,4.88671964 92.447461,4.70898438 L89.2892579,4.83203125 L89.2892579,1.59179688 Z M101.450391,4.36035156 C100.930857,4.34667962 100.476272,4.3740231 100.086621,4.44238281 C99.6969708,4.51074253 99.3756849,4.66796752 99.122754,4.9140625 C98.869823,5.16015748 98.6784187,5.52245854 98.5485352,6.00097656 C98.4186518,6.47949458 98.353711,7.12206628 98.353711,7.92871094 L98.353711,24.109375 C98.353711,24.4921894 98.3502931,24.8681622 98.3434571,25.2373047 C98.3366211,25.6064472 98.3263673,25.9584944 98.3126954,26.293457 C98.2990234,26.6284196 98.2819338,26.9326158 98.2614259,27.2060547 C98.2409179,27.4794936 98.2169924,27.7050772 98.1896485,27.8828125 C98.3947277,27.8691406 98.6715804,27.8623047 99.0202149,27.8623047 C99.3688495,27.8623047 99.7379864,27.8691406 100.127637,27.8828125 C100.517287,27.8964844 100.900096,27.9067382 101.276074,27.9135742 C101.652053,27.9204102 101.963085,27.9238281 102.20918,27.9238281 C103.740437,27.9238281 105.056342,27.6127961 106.156934,26.9907227 C107.257525,26.3686492 108.163278,25.5415091 108.874219,24.5092773 C109.58516,23.4770456 110.111522,22.2978582 110.45332,20.9716797 C110.795119,19.6455012 110.966016,18.2851632 110.966016,16.890625 C110.966016,14.7441299 110.74385,12.8916094 110.299512,11.3330078 C109.855174,9.77440627 109.219438,8.48584494 108.392285,7.46728516 C107.565133,6.44872538 106.563678,5.68652597 105.387891,5.18066406 C104.212104,4.67480216 102.899617,4.40136739 101.450391,4.36035156 L101.450391,4.36035156 Z M130.748633,17.21875 L130.748633,24.109375 C130.748633,24.4921894 130.745215,24.8647443 130.738379,25.2270508 C130.731543,25.5893573 130.721289,25.9345687 130.707617,26.2626953 C130.693945,26.590822 130.676856,26.8881823 130.656348,27.1547852 C130.63584,27.4213881 130.611914,27.6435538 130.58457,27.8212891 L136.224219,27.8007812 C136.839456,27.8007812 137.454685,27.6982432 138.069922,27.4931641 C138.685159,27.2880849 139.232029,26.9497094 139.710547,26.4780273 C140.189065,26.0063453 140.57871,25.3842812 140.879492,24.6118164 C141.180275,23.8393516 141.330664,22.8857479 141.330664,21.7509766 L144.099219,21.7509766 L143.853125,31 L121.68418,31 L121.68418,28.2314453 C122.149026,28.2041014 122.569432,28.1562503 122.94541,28.0878906 C123.321389,28.0195309 123.635839,27.8691418 123.88877,27.6367188 C124.141701,27.4042957 124.336523,27.0488305 124.473242,26.5703125 C124.609962,26.0917945 124.67832,25.4287152 124.67832,24.5810547 L124.67832,8.48242188 C124.67832,8.09960746 124.681738,7.72363466 124.688574,7.35449219 C124.69541,6.98534972 124.705664,6.63330246 124.719336,6.29833984 C124.733008,5.96337723 124.750098,5.65918105 124.770606,5.38574219 C124.791113,5.11230332 124.815039,4.88671964 124.842383,4.70898438 L121.68418,4.83203125 L121.68418,1.59179688 L142.704688,1.59179688 L142.950781,9.73339844 L140.182227,9.73339844 C140.182227,8.59862714 140.021584,7.6757848 139.700293,6.96484375 C139.379002,6.2539027 138.972268,5.70019729 138.480078,5.30371094 C137.987888,4.90722458 137.441019,4.64062568 136.839453,4.50390625 C136.237888,4.36718682 135.650003,4.30566399 135.075781,4.31933594 L133.558203,4.36035156 C133.120701,4.37402351 132.727639,4.41845666 132.379004,4.49365234 C132.030369,4.56884803 131.736427,4.72949096 131.497168,4.97558594 C131.257909,5.22168092 131.073341,5.58398198 130.943457,6.0625 C130.813574,6.54101802 130.748633,7.19042559 130.748633,8.01074219 L130.748633,14.3066406 L135.691016,14.3066406 L135.506445,10.6767578 L138.74668,10.6767578 L138.74668,20.8896484 L135.978125,20.8896484 C135.978125,20.0146441 135.868751,19.3242213 135.65,18.8183594 C135.431249,18.3124975 135.137307,17.9365247 134.768164,17.6904297 C134.399022,17.4443347 133.964944,17.2973635 133.465918,17.2495117 C132.966892,17.2016599 132.430276,17.1845702 131.856055,17.1982422 L130.748633,17.21875 Z M176.535156,8.40039062 L167.942383,31.4101562 L164.025391,31.4101562 L158.385742,17.5878906 C158.221679,17.2050762 158.013185,16.6821322 157.760254,16.019043 C157.507323,15.3559537 157.244142,14.607426 156.970703,13.7734375 C156.697264,12.939449 156.427248,12.0405322 156.160645,11.0766602 C155.894042,10.1127881 155.651368,9.12500506 155.432617,8.11328125 L155.391602,8.11328125 C155.432618,9.68555474 155.466797,11.1621025 155.494141,12.5429688 C155.521485,13.923835 155.528321,15.2499936 155.514649,16.5214844 L155.453125,24.109375 C155.453125,24.4921894 155.449707,24.8681622 155.442871,25.2373047 C155.436035,25.6064472 155.422364,25.9584944 155.401856,26.293457 C155.381348,26.6284196 155.36084,26.9326158 155.340332,27.2060547 C155.319824,27.4794936 155.295899,27.7050772 155.268555,27.8828125 L158.447266,27.7597656 L158.447266,31 L148.870117,31 L148.870117,28.2314453 C149.334963,28.2041014 149.751951,28.1562503 150.121094,28.0878906 C150.490236,28.0195309 150.801268,27.8691418 151.054199,27.6367188 C151.30713,27.4042957 151.501953,27.0488305 151.638672,26.5703125 C151.775391,26.0917945 151.850586,25.4287152 151.864258,24.5810547 L152.110352,8.48242188 C152.110352,8.09960746 152.117188,7.72363466 152.130859,7.35449219 C152.144531,6.98534972 152.158203,6.63330246 152.171875,6.29833984 C152.185547,5.96337723 152.202637,5.65918105 152.223145,5.38574219 C152.243653,5.11230332 152.267578,4.88671964 152.294922,4.70898438 L149.116211,4.83203125 L149.116211,1.59179688 L158.40625,1.59179688 L164.763672,17.8544922 C164.955079,18.3466821 165.163573,18.9003875 165.38916,19.515625 C165.614747,20.1308625 165.836913,20.7460907 166.055664,21.3613281 C166.274415,21.9765656 166.476073,22.5610324 166.660645,23.1147461 C166.845216,23.6684598 166.992187,24.1230451 167.101563,24.4785156 L167.142578,24.4785156 C167.498049,23.5078076 167.829588,22.5678756 168.137207,21.6586914 C168.444826,20.7495072 168.776366,19.8437545 169.131836,18.9414062 L175.612305,1.59179688 L185.3125,1.59179688 L185.3125,4.36035156 C184.833982,4.38769545 184.40674,4.43554653 184.030762,4.50390625 C183.654783,4.57226597 183.333498,4.72265509 183.066895,4.95507812 C182.800292,5.18750116 182.602052,5.54296636 182.472168,6.02148438 C182.342285,6.50000239 182.291016,7.1630817 182.318359,8.01074219 L182.954102,24.109375 C182.967774,24.4921894 182.971192,24.8681622 182.964356,25.2373047 C182.95752,25.6064472 182.947266,25.9584944 182.933594,26.293457 C182.919922,26.6284196 182.899414,26.9326158 182.87207,27.2060547 C182.844727,27.4794936 182.817383,27.7050772 182.790039,27.8828125 L185.948242,27.7597656 L185.948242,31 L174.279297,31 L174.279297,28.2314453 C174.744143,28.2041014 175.167967,28.1562503 175.550781,28.0878906 C175.933596,28.0195309 176.2583,27.8691418 176.524902,27.6367188 C176.791505,27.4042957 176.989746,27.0488305 177.119629,26.5703125 C177.249512,26.0917945 177.300782,25.4287152 177.273438,24.5810547 L176.924805,15.6806641 C176.911133,15.4345691 176.890625,15.0346707 176.863281,14.480957 C176.835937,13.9272433 176.805176,13.3085972 176.770996,12.625 C176.736816,11.9414028 176.702637,11.2270545 176.668457,10.4819336 C176.634277,9.73681268 176.603516,9.04297196 176.576172,8.40039062 L176.535156,8.40039062 Z M206.407617,19.3515625 L206.407617,24.109375 C206.407617,24.4921894 206.404199,24.8681622 206.397363,25.2373047 C206.390527,25.6064472 206.380274,25.9584944 206.366602,26.293457 C206.35293,26.6284196 206.33584,26.9326158 206.315332,27.2060547 C206.294824,27.4794936 206.270899,27.7050772 206.243555,27.8828125 L209.606836,27.7597656 L209.606836,31 L197.343164,31 L197.343164,28.2314453 C197.80801,28.2177734 198.228416,28.1733402 198.604395,28.0981445 C198.980373,28.0229488 199.294823,27.8691418 199.547754,27.6367188 C199.800685,27.4042957 199.995507,27.0488305 200.132227,26.5703125 C200.268946,26.0917945 200.337305,25.4287152 200.337305,24.5810547 L200.337305,20.9101562 L192.585352,8.70800781 C192.380273,8.37988117 192.182032,8.03125185 191.990625,7.66210938 C191.799218,7.2929669 191.628321,6.92724791 191.47793,6.56494141 C191.327538,6.20263491 191.207911,5.86084145 191.119043,5.53955078 C191.030175,5.21826011 190.985742,4.94140741 190.985742,4.70898438 L188.955469,4.83203125 L188.955469,1.59179688 L201.32168,1.59179688 L201.32168,4.36035156 C201.239648,4.36035156 201.161036,4.35693363 201.08584,4.35009766 C201.010644,4.34326168 200.932032,4.33984375 200.85,4.33984375 C200.070699,4.33984375 199.455471,4.47997907 199.004297,4.76025391 C198.553123,5.04052875 198.327539,5.45409883 198.327539,6.00097656 C198.341211,6.2333996 198.382226,6.48290882 198.450586,6.74951172 C198.518946,7.01611461 198.648827,7.29980318 198.840235,7.60058594 L202.059961,12.8710938 C202.155665,13.0351571 202.299218,13.2812484 202.490625,13.609375 C202.682032,13.9375016 202.88369,14.2963848 203.095606,14.6860352 C203.307521,15.0756855 203.512597,15.468748 203.71084,15.8652344 C203.909083,16.2617207 204.06289,16.6103501 204.172266,16.9111328 L204.233789,16.9111328 C204.370509,16.5966781 204.602928,16.1010776 204.931055,15.4243164 C205.259181,14.7475552 205.683005,13.8759819 206.202539,12.8095703 L208.376367,8.5234375 C208.485743,8.30468641 208.629296,8.02441577 208.807031,7.68261719 C208.984767,7.3408186 209.176171,6.98535341 209.38125,6.61621094 C209.586329,6.24706847 209.791405,5.89160327 209.996485,5.54980469 C210.201564,5.2080061 210.399804,4.92773547 210.591211,4.70898438 L210.591211,4.66796875 L207.371485,4.83203125 L207.371485,1.59179688 L216.641016,1.59179688 L216.641016,4.36035156 C216.148826,4.44238322 215.701076,4.57910061 215.297754,4.77050781 C214.894432,4.96191502 214.508205,5.23193185 214.139063,5.58056641 C213.76992,5.92920096 213.404201,6.37011452 213.041895,6.90332031 C212.679588,7.4365261 212.293362,8.08593367 211.883203,8.8515625 L206.407617,19.3515625 Z" id="ACADEMY"></path>
                <path d="M2.509,57.086 C1.04965937,55.619326 0.32,53.6906786 0.32,51.3 C0.32,48.9093214 1.04965937,46.9770074 2.509,45.503 C3.96834063,44.0289926 5.8713216,43.292 8.218,43.292 C10.2420101,43.292 12.0239923,43.7906617 13.564,44.788 L14.004,47.89 L13.806,47.89 C13.4833317,46.6286604 12.8343382,45.6570034 11.859,44.975 C10.8836618,44.2929966 9.67000726,43.952 8.218,43.952 C6.35532402,43.952 4.84833909,44.6266599 3.697,45.976 C2.54566091,47.3253401 1.97,49.099989 1.97,51.3 C1.97,53.500011 2.54566091,55.2709933 3.697,56.613 C4.84833909,57.9550067 6.35532402,58.6333333 8.218,58.648 C9.1713381,58.648 10.0769957,58.479335 10.935,58.142 C11.7930043,57.804665 12.5446634,57.3353363 13.19,56.734 L13.19,52.84 C13.19,52.5173317 13.091001,52.2716675 12.893,52.103 C12.694999,51.9343325 12.4200018,51.85 12.068,51.85 L11.716,51.85 L11.716,51.63 L16.028,51.63 L16.028,51.85 L15.698,51.85 C15.3313315,51.85 15.0526676,51.9343325 14.862,52.103 C14.6713324,52.2716675 14.5833333,52.5173317 14.598,52.84 L14.598,56.47 C14.2166648,56.9686692 13.7620026,57.415998 13.234,57.812 C12.7059974,58.208002 11.9983378,58.5563318 11.111,58.857 C10.2236622,59.1576682 9.25933854,59.308 8.218,59.308 C5.8713216,59.2933333 3.96834063,58.552674 2.509,57.086 L2.509,57.086 Z M22.56,46.482 L21.394,46.482 L21.394,57.592 C21.4086667,58.0466689 21.613998,58.3913322 22.01,58.626 C22.2006676,58.7286672 22.4133321,58.78 22.648,58.78 L22.934,58.78 L22.956,59 L18.446,59 L18.446,58.78 L18.754,58.78 C19.091335,58.78 19.3809988,58.6663345 19.623,58.439 C19.8650012,58.2116655 19.986,57.9366683 19.986,57.614 L19.986,47.164 C19.986,46.8413317 19.8650012,46.5700011 19.623,46.35 C19.3809988,46.1299989 19.091335,46.02 18.754,46.02 L18.446,46.02 L18.446,45.8 L23.968,45.8 C25.3466735,45.8 26.4356626,46.1153302 27.235,46.746 C28.0343373,47.3766698 28.434,48.2053282 28.434,49.232 C28.434,50.2586718 28.1113365,51.1166632 27.466,51.806 C26.8206634,52.4953368 25.9993383,52.8913328 25.002,52.994 C25.4713357,53.1993344 26.0359967,53.7713286 26.696,54.71 C26.6813332,54.71 26.9343307,55.0326634 27.455,55.678 C27.9756692,56.3233366 28.3936651,56.8256649 28.709,57.185 C29.0243349,57.5443351 29.2846656,57.8193324 29.49,58.01 C30.0326694,58.5233359 30.6559965,58.78 31.36,58.78 L31.36,59 L30.678,59 C29.5193275,59 28.6100033,58.7726689 27.95,58.318 C27.4513308,57.980665 26.9966687,57.5626692 26.586,57.064 C26.4979995,56.9466661 26.1276699,56.4296712 25.475,55.513 C24.82233,54.5963287 24.4740002,54.108667 24.43,54.05 C23.637996,53.0673284 22.8973368,52.576 22.208,52.576 L22.208,52.356 C23.9240086,52.356 24.9579982,52.2680009 25.31,52.092 C25.7940024,51.8426654 26.1239991,51.5786681 26.3,51.3 C26.6666685,50.7133304 26.85,50.0680035 26.85,49.364 C26.85,48.4693289 26.5860026,47.7800024 26.058,47.296 C25.5299973,46.8119976 24.8186711,46.5480002 23.924,46.504 C23.527998,46.4893333 23.0733359,46.482 22.56,46.482 L22.56,46.482 Z M46.45,58.78 L46.626,58.78 L46.626,59 L42.116,59 L42.116,58.78 L42.292,58.78 C42.570668,58.78 42.7833326,58.6846676 42.93,58.494 C43.0766674,58.3033324 43.15,58.1236675 43.15,57.955 C43.15,57.7863325 43.1206669,57.6213341 43.062,57.46 L41.852,54.534 L36.286,54.534 L35.076,57.394 C35.0026663,57.5846676 34.966,57.7643325 34.966,57.933 C34.966,58.1016675 35.0393326,58.284999 35.186,58.483 C35.3326674,58.681001 35.5526652,58.78 35.846,58.78 L36.022,58.78 L36.022,59 L31.82,59 L31.82,58.78 L31.996,58.78 C32.3040015,58.78 32.615665,58.6736677 32.931,58.461 C33.2463349,58.2483323 33.5066656,57.9293355 33.712,57.504 C36.924016,50.6399657 38.5959993,47.0466683 38.728,46.724 C38.9773345,46.1079969 39.1093332,45.6973344 39.124,45.492 L39.322,45.492 L44.756,57.504 C45.1813354,58.3546709 45.7459964,58.78 46.45,58.78 L46.45,58.78 Z M36.572,53.874 L41.588,53.874 L39.124,47.846 L36.572,53.874 Z M66.2479999,58.78 L66.5779999,58.78 L66.5779999,59 L62.0019999,59 L62.0019999,58.802 L62.3319999,58.802 C62.552001,58.802 62.7463324,58.7176675 62.9149999,58.549 C63.0836674,58.3803325 63.1533334,58.1786678 63.1239999,57.944 L61.9799999,48.88 L57.8219999,57.064 C57.4113312,57.9586711 57.1546671,58.7066637 57.0519999,59.308 L56.8319999,59.308 L51.5299999,49.078 L50.5399999,57.944 C50.5106664,58.1640011 50.5803324,58.3619991 50.7489999,58.538 C50.9176674,58.7140009 51.1193321,58.802 51.3539999,58.802 L51.6619999,58.802 L51.6619999,59 L47.5919999,59 L47.5919999,58.78 L47.9219999,58.78 C48.4500026,58.78 48.8606651,58.5893352 49.1539999,58.208 C49.3006673,58.0173324 49.3886664,57.7900013 49.4179999,57.526 L51.1339999,45.492 L51.3539999,45.492 L57.1619999,56.668 L62.7719999,45.492 L62.9699999,45.492 L64.7519999,57.57 C64.8106669,57.9366685 64.9793319,58.2299989 65.2579999,58.45 C65.536668,58.6700011 65.8666647,58.78 66.2479999,58.78 L66.2479999,58.78 Z M86.4639999,58.78 L86.7939999,58.78 L86.7939999,59 L82.2179999,59 L82.2179999,58.802 L82.5479999,58.802 C82.768001,58.802 82.9623324,58.7176675 83.1309999,58.549 C83.2996674,58.3803325 83.3693334,58.1786678 83.3399999,57.944 L82.1959999,48.88 L78.0379999,57.064 C77.6273312,57.9586711 77.3706671,58.7066637 77.2679999,59.308 L77.0479999,59.308 L71.7459999,49.078 L70.7559999,57.944 C70.7266664,58.1640011 70.7963324,58.3619991 70.9649999,58.538 C71.1336674,58.7140009 71.3353321,58.802 71.5699999,58.802 L71.8779999,58.802 L71.8779999,59 L67.8079999,59 L67.8079999,58.78 L68.1379999,58.78 C68.6660025,58.78 69.0766651,58.5893352 69.3699999,58.208 C69.5166673,58.0173324 69.6046664,57.7900013 69.6339999,57.526 L71.3499999,45.492 L71.5699999,45.492 L77.3779999,56.668 L82.9879999,45.492 L83.1859999,45.492 L84.9679999,57.57 C85.0266669,57.9366685 85.1953318,58.2299989 85.4739999,58.45 C85.752668,58.6700011 86.0826647,58.78 86.4639999,58.78 L86.4639999,58.78 Z M102.368,58.78 L102.544,58.78 L102.544,59 L98.0339999,59 L98.0339999,58.78 L98.2099999,58.78 C98.4886679,58.78 98.7013325,58.6846676 98.8479999,58.494 C98.9946673,58.3033324 99.0679999,58.1236675 99.0679999,57.955 C99.0679999,57.7863325 99.0386668,57.6213341 98.9799999,57.46 L97.7699999,54.534 L92.2039999,54.534 L90.9939999,57.394 C90.9206662,57.5846676 90.8839999,57.7643325 90.8839999,57.933 C90.8839999,58.1016675 90.9573325,58.284999 91.1039999,58.483 C91.2506673,58.681001 91.4706651,58.78 91.7639999,58.78 L91.9399999,58.78 L91.9399999,59 L87.7379999,59 L87.7379999,58.78 L87.9139999,58.78 C88.2220014,58.78 88.533665,58.6736677 88.8489999,58.461 C89.1643348,58.2483323 89.4246655,57.9293355 89.6299999,57.504 C92.8420159,50.6399657 94.5139992,47.0466683 94.6459999,46.724 C94.8953345,46.1079969 95.0273331,45.6973344 95.0419999,45.492 L95.2399999,45.492 L100.674,57.504 C101.099335,58.3546709 101.663996,58.78 102.368,58.78 L102.368,58.78 Z M92.4899999,53.874 L97.5059999,53.874 L95.0419999,47.846 L92.4899999,53.874 Z M108.658,46.482 L107.492,46.482 L107.492,57.592 C107.506667,58.0466689 107.711998,58.3913322 108.108,58.626 C108.298667,58.7286672 108.511332,58.78 108.746,58.78 L109.032,58.78 L109.054,59 L104.544,59 L104.544,58.78 L104.852,58.78 C105.189335,58.78 105.478999,58.6663345 105.721,58.439 C105.963001,58.2116655 106.084,57.9366683 106.084,57.614 L106.084,47.164 C106.084,46.8413317 105.963001,46.5700011 105.721,46.35 C105.478999,46.1299989 105.189335,46.02 104.852,46.02 L104.544,46.02 L104.544,45.8 L110.066,45.8 C111.444673,45.8 112.533663,46.1153302 113.333,46.746 C114.132337,47.3766698 114.532,48.2053282 114.532,49.232 C114.532,50.2586718 114.209336,51.1166632 113.564,51.806 C112.918663,52.4953368 112.097338,52.8913328 111.1,52.994 C111.569336,53.1993344 112.133997,53.7713286 112.794,54.71 C112.779333,54.71 113.032331,55.0326634 113.553,55.678 C114.073669,56.3233366 114.491665,56.8256649 114.807,57.185 C115.122335,57.5443351 115.382665,57.8193324 115.588,58.01 C116.130669,58.5233359 116.753996,58.78 117.458,58.78 L117.458,59 L116.776,59 C115.617327,59 114.708003,58.7726689 114.048,58.318 C113.549331,57.980665 113.094669,57.5626692 112.684,57.064 C112.595999,56.9466661 112.22567,56.4296712 111.573,55.513 C110.92033,54.5963287 110.572,54.108667 110.528,54.05 C109.735996,53.0673284 108.995337,52.576 108.306,52.576 L108.306,52.356 C110.022008,52.356 111.055998,52.2680009 111.408,52.092 C111.892002,51.8426654 112.221999,51.5786681 112.398,51.3 C112.764668,50.7133304 112.948,50.0680035 112.948,49.364 C112.948,48.4693289 112.684002,47.7800024 112.156,47.296 C111.627997,46.8119976 110.916671,46.5480002 110.022,46.504 C109.625998,46.4893333 109.171336,46.482 108.658,46.482 L108.658,46.482 Z M125.77,58.098 C125.726,57.8926656 125.704,57.4966696 125.704,56.91 C125.704,56.3233304 125.813999,55.7000033 126.034,55.04 L126.232,55.04 C126.217333,55.2013341 126.21,55.3626659 126.21,55.524 C126.21,56.4186711 126.48133,57.162997 127.024,57.757 C127.566669,58.351003 128.285329,58.648 129.18,58.648 C130.104004,58.648 130.862997,58.3693361 131.457,57.812 C132.051003,57.2546639 132.348,56.5543375 132.348,55.711 C132.348,54.8676624 132.062003,54.1820026 131.49,53.654 L127.266,49.738 C126.473996,49.004663 126.078,48.1173385 126.078,47.076 C126.078,46.0346615 126.42633,45.1436704 127.123,44.403 C127.81967,43.6623296 128.761994,43.292 129.95,43.292 C130.507336,43.292 131.137996,43.3653326 131.842,43.512 L132.7,43.512 L132.7,46.218 L132.502,46.218 C132.502,45.5286632 132.263669,44.9786687 131.787,44.568 C131.310331,44.1573313 130.698004,43.952 129.95,43.952 C129.201996,43.952 128.575002,44.2013308 128.069,44.7 C127.562997,45.1986692 127.31,45.8219963 127.31,46.57 C127.31,47.3180037 127.60333,47.9633306 128.19,48.506 L132.524,52.51 C133.257337,53.18467 133.624,54.1086608 133.624,55.282 C133.624,56.4553392 133.250004,57.4196629 132.502,58.175 C131.753996,58.9303371 130.756673,59.308 129.51,59.308 C128.864663,59.308 128.179003,59.209001 127.453,59.011 C126.726996,58.812999 126.166002,58.5086687 125.77,58.098 L125.77,58.098 Z M138.825,57.438 C137.526993,56.2059938 136.878,54.5230107 136.878,52.389 C136.878,50.2549893 137.526993,48.5720062 138.825,47.34 C140.123006,46.1079938 141.893989,45.492 144.138,45.492 C145.047338,45.492 145.963995,45.6093322 146.888,45.844 C147.812004,46.0786678 148.61133,46.4013313 149.286,46.812 L149.77,49.936 L149.572,49.936 C148.94133,47.4133207 147.122681,46.152 144.116,46.152 C142.370658,46.152 140.992005,46.7093278 139.98,47.824 C138.967995,48.9386722 138.462,50.4639903 138.462,52.4 C138.462,53.6613396 138.689331,54.757662 139.144,55.689 C139.598669,56.620338 140.258662,57.3426641 141.124,57.856 C141.989337,58.3693359 142.993994,58.626 144.138,58.626 C145.282006,58.626 146.282995,58.4536684 147.141,58.109 C147.999004,57.7643316 148.71033,57.196004 149.275,56.404 C149.839669,55.611996 150.158666,54.6293392 150.232,53.456 L150.43,53.456 L150.188,56.47 C149.615997,57.3500044 148.787339,58.0429975 147.702,58.549 C146.616661,59.0550025 145.428673,59.308 144.138,59.308 C141.893989,59.2933333 140.123006,58.6700062 138.825,57.438 L138.825,57.438 Z M163.188,58.78 C163.525335,58.78 163.818665,58.6663345 164.068,58.439 C164.317334,58.2116655 164.449333,57.9366683 164.464,57.614 L164.464,52.818 L156.346,52.818 L156.346,57.614 C156.360667,57.9366683 156.492665,58.2116655 156.742,58.439 C156.991334,58.6663345 157.284665,58.78 157.622,58.78 L157.886,58.78 L157.886,59 L153.398,59 L153.398,58.78 L153.662,58.78 C154.014002,58.78 154.310999,58.6626678 154.553,58.428 C154.795001,58.1933322 154.923333,57.9146683 154.938,57.592 L154.938,47.208 C154.923333,46.8853317 154.791334,46.6066678 154.542,46.372 C154.292665,46.1373322 153.999335,46.02 153.662,46.02 L153.398,46.02 L153.398,45.8 L157.886,45.8 L157.886,46.02 L157.622,46.02 C157.284665,46.02 156.991334,46.1336655 156.742,46.361 C156.492665,46.5883345 156.360667,46.8633317 156.346,47.186 L156.346,52.158 L164.464,52.158 L164.464,47.208 C164.464,46.8853317 164.368667,46.6360009 164.178,46.46 C163.869998,46.1666652 163.540002,46.02 163.188,46.02 L162.924,46.02 L162.924,45.8 L167.412,45.8 L167.412,46.02 L167.148,46.02 C166.810665,46.02 166.517334,46.1299989 166.268,46.35 C166.018665,46.5700011 165.886667,46.8413317 165.872,47.164 L165.872,57.614 C165.886667,57.9366683 165.981999,58.1786659 166.158,58.34 C166.480668,58.6333348 166.810665,58.78 167.148,58.78 L167.412,58.78 L167.412,59 L162.924,59 L162.924,58.78 L163.188,58.78 Z M177.695,45.492 C179.051673,45.492 180.294661,45.7816638 181.424,46.361 C182.553339,46.9403362 183.451663,47.7579947 184.119,48.814 C184.786336,49.8700053 185.12,51.0653267 185.12,52.4 C185.12,53.7346733 184.786336,54.9299947 184.119,55.986 C183.451663,57.0420053 182.553339,57.8596638 181.424,58.439 C180.294661,59.0183362 179.136006,59.308 177.948,59.308 C176.759994,59.308 175.711338,59.139335 174.802,58.802 C173.892662,58.464665 173.104336,57.9953363 172.437,57.394 C171.769663,56.7926637 171.241668,56.0593377 170.853,55.194 C170.464331,54.3286623 170.27,53.3130058 170.27,52.147 C170.27,50.9809942 170.603663,49.8700053 171.271,48.814 C171.938336,47.7579947 172.836661,46.9403362 173.966,46.361 C175.095339,45.7816638 176.338326,45.492 177.695,45.492 L177.695,45.492 Z M177.684,58.648 C179.326675,58.648 180.705327,58.0650058 181.82,56.899 C182.934672,55.7329942 183.492,54.2333425 183.492,52.4 C183.492,50.5666575 182.934672,49.0670058 181.82,47.901 C180.705327,46.7349942 179.326675,46.152 177.684,46.152 C176.041325,46.152 174.666339,46.7349942 173.559,47.901 C172.451661,49.0670058 171.898,50.5666575 171.898,52.4 C171.898,54.2333425 172.451661,55.7329942 173.559,56.899 C174.666339,58.0650058 176.041325,58.648 177.684,58.648 L177.684,58.648 Z M195.623,45.492 C196.979673,45.492 198.222661,45.7816638 199.352,46.361 C200.481339,46.9403362 201.379663,47.7579947 202.047,48.814 C202.714336,49.8700053 203.048,51.0653267 203.048,52.4 C203.048,53.7346733 202.714336,54.9299947 202.047,55.986 C201.379663,57.0420053 200.481339,57.8596638 199.352,58.439 C198.222661,59.0183362 197.064006,59.308 195.876,59.308 C194.687994,59.308 193.639338,59.139335 192.73,58.802 C191.820662,58.464665 191.032336,57.9953363 190.365,57.394 C189.697663,56.7926637 189.169668,56.0593377 188.781,55.194 C188.392331,54.3286623 188.198,53.3130058 188.198,52.147 C188.198,50.9809942 188.531663,49.8700053 189.199,48.814 C189.866336,47.7579947 190.764661,46.9403362 191.894,46.361 C193.023339,45.7816638 194.266326,45.492 195.623,45.492 L195.623,45.492 Z M195.612,58.648 C197.254675,58.648 198.633327,58.0650058 199.748,56.899 C200.862672,55.7329942 201.42,54.2333425 201.42,52.4 C201.42,50.5666575 200.862672,49.0670058 199.748,47.901 C198.633327,46.7349942 197.254675,46.152 195.612,46.152 C193.969325,46.152 192.594339,46.7349942 191.487,47.901 C190.379661,49.0670058 189.826,50.5666575 189.826,52.4 C189.826,54.2333425 190.379661,55.7329942 191.487,56.899 C192.594339,58.0650058 193.969325,58.648 195.612,58.648 L195.612,58.648 Z M206.544,58.78 C206.896001,58.78 207.192998,58.6663345 207.435,58.439 C207.677001,58.2116655 207.805333,57.9366683 207.82,57.614 L207.82,47.208 C207.805333,46.8853317 207.669668,46.6066678 207.413,46.372 C207.156332,46.1373322 206.852001,46.02 206.5,46.02 L206.236,46.02 L206.236,45.8 L210.79,45.8 L210.79,46.02 L210.526,46.02 C210.173998,46.02 209.869668,46.1373322 209.613,46.372 C209.356332,46.6066678 209.228,46.8853317 209.228,47.208 L209.228,58.318 L212.66,58.318 C213.33467,58.318 213.906664,58.2006678 214.376,57.966 C214.845335,57.7313322 215.200998,57.4526683 215.443,57.13 C215.685001,56.8073317 215.923332,56.3820026 216.158,55.854 L216.378,55.854 L215.168,59 L206.236,59 L206.236,58.78 L206.544,58.78 Z" id="Grammar-School"></path>
            </g>
        </g>
    </g>
</svg>